<?xml version="1.0" standalone="no"?><svg xmlns="http://www.w3.org/2000/svg" viewBox="0 0 1440 320"><path fill="#40140A" fill-opacity="1" d="M0,32L34.3,58.7C68.6,85,137,139,206,138.7C274.3,139,343,85,411,64C480,43,549,53,617,74.7C685.7,96,754,128,823,133.3C891.4,139,960,117,1029,138.7C1097.1,160,1166,224,1234,218.7C1302.9,213,1371,139,1406,101.3L1440,64L1440,320L1405.7,320C1371.4,320,1303,320,1234,320C1165.7,320,1097,320,1029,320C960,320,891,320,823,320C754.3,320,686,320,617,320C548.6,320,480,320,411,320C342.9,320,274,320,206,320C137.1,320,69,320,34,320L0,320Z"></path></svg>